<mxfile host="app.diagrams.net" agent="Mozilla/5.0 (Macintosh; Intel Mac OS X 10_15_7) AppleWebKit/537.36 (KHTML, like Gecko) Chrome/134.0.0.0 Safari/537.36" version="26.0.5" pages="4">
  <diagram id="Ht1M8jgEwFfnCIfOTk4-" name="Page-1">
    <mxGraphModel dx="844" dy="1361" grid="1" gridSize="10" guides="1" tooltips="1" connect="1" arrows="1" fold="1" page="1" pageScale="1" pageWidth="1169" pageHeight="827" math="0" shadow="0">
      <root>
        <mxCell id="0" />
        <mxCell id="1" parent="0" />
        <mxCell id="UEzPUAAOIrF-is8g5C7q-154" value="AWS Cloud" style="points=[[0,0],[0.25,0],[0.5,0],[0.75,0],[1,0],[1,0.25],[1,0.5],[1,0.75],[1,1],[0.75,1],[0.5,1],[0.25,1],[0,1],[0,0.75],[0,0.5],[0,0.25]];outlineConnect=0;gradientColor=none;html=1;whiteSpace=wrap;fontSize=12;fontStyle=0;shape=mxgraph.aws4.group;grIcon=mxgraph.aws4.group_aws_cloud_alt;strokeColor=#232F3E;fillColor=none;verticalAlign=top;align=left;spacingLeft=30;fontColor=#232F3E;dashed=0;labelBackgroundColor=none;container=1;pointerEvents=0;collapsible=0;recursiveResize=0;" parent="1" vertex="1">
          <mxGeometry x="370" y="-400" width="630" height="360" as="geometry" />
        </mxCell>
        <mxCell id="YZtYT6oUqQ94IwrMaRFQ-7" style="edgeStyle=orthogonalEdgeStyle;rounded=0;orthogonalLoop=1;jettySize=auto;html=1;labelBackgroundColor=none;" edge="1" parent="UEzPUAAOIrF-is8g5C7q-154" source="YZtYT6oUqQ94IwrMaRFQ-1" target="UEzPUAAOIrF-is8g5C7q-148">
          <mxGeometry relative="1" as="geometry" />
        </mxCell>
        <mxCell id="YZtYT6oUqQ94IwrMaRFQ-1" value="Amazon API Gateway" style="sketch=0;points=[[0,0,0],[0.25,0,0],[0.5,0,0],[0.75,0,0],[1,0,0],[0,1,0],[0.25,1,0],[0.5,1,0],[0.75,1,0],[1,1,0],[0,0.25,0],[0,0.5,0],[0,0.75,0],[1,0.25,0],[1,0.5,0],[1,0.75,0]];outlineConnect=0;fontColor=#232F3E;fillColor=#E7157B;strokeColor=#ffffff;dashed=0;verticalLabelPosition=bottom;verticalAlign=top;align=center;html=1;fontSize=12;fontStyle=0;aspect=fixed;shape=mxgraph.aws4.resourceIcon;resIcon=mxgraph.aws4.api_gateway;labelBackgroundColor=none;" vertex="1" parent="UEzPUAAOIrF-is8g5C7q-154">
          <mxGeometry x="30" y="141" width="78" height="78" as="geometry" />
        </mxCell>
        <mxCell id="YZtYT6oUqQ94IwrMaRFQ-12" style="edgeStyle=orthogonalEdgeStyle;rounded=0;orthogonalLoop=1;jettySize=auto;html=1;labelBackgroundColor=none;" edge="1" parent="UEzPUAAOIrF-is8g5C7q-154" source="UEzPUAAOIrF-is8g5C7q-149" target="YZtYT6oUqQ94IwrMaRFQ-3">
          <mxGeometry relative="1" as="geometry">
            <Array as="points">
              <mxPoint x="490" y="190" />
              <mxPoint x="490" y="270" />
            </Array>
          </mxGeometry>
        </mxCell>
        <mxCell id="UEzPUAAOIrF-is8g5C7q-149" value="Amazon DynamoDB" style="outlineConnect=0;fontColor=#232F3E;gradientColor=#4D72F3;gradientDirection=north;fillColor=#3334B9;strokeColor=#ffffff;dashed=0;verticalLabelPosition=bottom;verticalAlign=top;align=center;html=1;fontSize=12;fontStyle=0;aspect=fixed;shape=mxgraph.aws4.resourceIcon;resIcon=mxgraph.aws4.dynamodb;labelBackgroundColor=none;" parent="UEzPUAAOIrF-is8g5C7q-154" vertex="1">
          <mxGeometry x="510" y="141" width="78" height="78" as="geometry" />
        </mxCell>
        <mxCell id="YZtYT6oUqQ94IwrMaRFQ-9" value="&lt;font style=&quot;font-size: 12px;&quot;&gt;/scrapememes&lt;/font&gt;" style="edgeStyle=orthogonalEdgeStyle;rounded=0;orthogonalLoop=1;jettySize=auto;html=1;labelBackgroundColor=none;" edge="1" parent="UEzPUAAOIrF-is8g5C7q-154" source="UEzPUAAOIrF-is8g5C7q-148" target="YZtYT6oUqQ94IwrMaRFQ-4">
          <mxGeometry x="0.505" y="9" relative="1" as="geometry">
            <Array as="points">
              <mxPoint x="260" y="170" />
              <mxPoint x="260" y="79" />
            </Array>
            <mxPoint as="offset" />
          </mxGeometry>
        </mxCell>
        <mxCell id="UEzPUAAOIrF-is8g5C7q-148" value="gatherer-bot" style="outlineConnect=0;fontColor=#232F3E;gradientColor=#F78E04;gradientDirection=north;fillColor=#D05C17;strokeColor=#ffffff;dashed=0;verticalLabelPosition=bottom;verticalAlign=top;align=center;html=1;fontSize=12;fontStyle=0;aspect=fixed;shape=mxgraph.aws4.resourceIcon;resIcon=mxgraph.aws4.lambda;labelBackgroundColor=none;spacingTop=8;" parent="UEzPUAAOIrF-is8g5C7q-154" vertex="1">
          <mxGeometry x="161" y="141" width="78" height="78" as="geometry" />
        </mxCell>
        <mxCell id="YZtYT6oUqQ94IwrMaRFQ-3" value="get-report" style="outlineConnect=0;fontColor=#232F3E;gradientColor=#F78E04;gradientDirection=north;fillColor=#D05C17;strokeColor=#ffffff;dashed=0;verticalLabelPosition=bottom;verticalAlign=top;align=center;html=1;fontSize=12;fontStyle=0;aspect=fixed;shape=mxgraph.aws4.resourceIcon;resIcon=mxgraph.aws4.lambda;labelBackgroundColor=none;spacingTop=8;" vertex="1" parent="UEzPUAAOIrF-is8g5C7q-154">
          <mxGeometry x="352" y="230" width="78" height="78" as="geometry" />
        </mxCell>
        <mxCell id="YZtYT6oUqQ94IwrMaRFQ-8" value="&lt;font style=&quot;font-size: 12px;&quot;&gt;/getreport&lt;/font&gt;" style="edgeStyle=orthogonalEdgeStyle;rounded=0;orthogonalLoop=1;jettySize=auto;html=1;startArrow=classic;startFill=1;labelBackgroundColor=none;" edge="1" parent="UEzPUAAOIrF-is8g5C7q-154" source="UEzPUAAOIrF-is8g5C7q-148" target="YZtYT6oUqQ94IwrMaRFQ-3">
          <mxGeometry x="0.4301" y="-10" relative="1" as="geometry">
            <mxPoint x="270" y="-70" as="targetPoint" />
            <Array as="points">
              <mxPoint x="260" y="190" />
              <mxPoint x="260" y="270" />
            </Array>
            <mxPoint as="offset" />
          </mxGeometry>
        </mxCell>
        <mxCell id="YZtYT6oUqQ94IwrMaRFQ-10" style="edgeStyle=orthogonalEdgeStyle;rounded=0;orthogonalLoop=1;jettySize=auto;html=1;labelBackgroundColor=none;" edge="1" parent="UEzPUAAOIrF-is8g5C7q-154" source="YZtYT6oUqQ94IwrMaRFQ-4" target="UEzPUAAOIrF-is8g5C7q-149">
          <mxGeometry relative="1" as="geometry">
            <Array as="points">
              <mxPoint x="490" y="79" />
              <mxPoint x="490" y="170" />
            </Array>
          </mxGeometry>
        </mxCell>
        <mxCell id="YZtYT6oUqQ94IwrMaRFQ-4" value="&lt;font&gt;scrape-memes&lt;/font&gt;" style="outlineConnect=0;fontColor=#232F3E;gradientColor=#F78E04;gradientDirection=north;fillColor=#D05C17;strokeColor=#ffffff;dashed=0;verticalLabelPosition=bottom;verticalAlign=top;align=center;html=1;fontSize=12;fontStyle=0;aspect=fixed;shape=mxgraph.aws4.resourceIcon;resIcon=mxgraph.aws4.lambda;labelBackgroundColor=none;spacingTop=8;" vertex="1" parent="UEzPUAAOIrF-is8g5C7q-154">
          <mxGeometry x="350" y="42" width="78" height="78" as="geometry" />
        </mxCell>
        <mxCell id="YZtYT6oUqQ94IwrMaRFQ-6" style="edgeStyle=orthogonalEdgeStyle;rounded=0;orthogonalLoop=1;jettySize=auto;html=1;labelBackgroundColor=none;" edge="1" parent="1" source="YZtYT6oUqQ94IwrMaRFQ-2" target="YZtYT6oUqQ94IwrMaRFQ-1">
          <mxGeometry relative="1" as="geometry" />
        </mxCell>
        <mxCell id="YZtYT6oUqQ94IwrMaRFQ-2" value="Telegram" style="shape=image;html=1;verticalAlign=top;verticalLabelPosition=bottom;labelBackgroundColor=none;imageAspect=0;aspect=fixed;image=https://cdn2.iconfinder.com/data/icons/social-media-2421/512/Telegram-128.png;fontSize=12;" vertex="1" parent="1">
          <mxGeometry x="243" y="-260" width="80" height="80" as="geometry" />
        </mxCell>
        <mxCell id="YZtYT6oUqQ94IwrMaRFQ-13" style="edgeStyle=orthogonalEdgeStyle;rounded=0;orthogonalLoop=1;jettySize=auto;html=1;entryX=0.5;entryY=0;entryDx=0;entryDy=0;fontSize=22;labelBackgroundColor=none;" edge="1" parent="1" source="UEzPUAAOIrF-is8g5C7q-148" target="YZtYT6oUqQ94IwrMaRFQ-2">
          <mxGeometry relative="1" as="geometry">
            <Array as="points">
              <mxPoint x="585" y="-320" />
              <mxPoint x="283" y="-320" />
            </Array>
          </mxGeometry>
        </mxCell>
      </root>
    </mxGraphModel>
  </diagram>
  <diagram id="nXPpa8tf6rssDttv5HNI" name="Page-2">
    <mxGraphModel dx="1434" dy="2007" grid="1" gridSize="10" guides="1" tooltips="1" connect="1" arrows="1" fold="1" page="1" pageScale="1" pageWidth="850" pageHeight="1100" math="0" shadow="0">
      <root>
        <mxCell id="0" />
        <mxCell id="1" parent="0" />
        <mxCell id="7rjN7eUBx7o-yA5BUYcP-1" value="AWS Cloud" style="points=[[0,0],[0.25,0],[0.5,0],[0.75,0],[1,0],[1,0.25],[1,0.5],[1,0.75],[1,1],[0.75,1],[0.5,1],[0.25,1],[0,1],[0,0.75],[0,0.5],[0,0.25]];outlineConnect=0;gradientColor=none;html=1;whiteSpace=wrap;fontSize=12;fontStyle=0;shape=mxgraph.aws4.group;grIcon=mxgraph.aws4.group_aws_cloud_alt;strokeColor=#232F3E;fillColor=none;verticalAlign=top;align=left;spacingLeft=30;fontColor=#232F3E;dashed=0;labelBackgroundColor=none;container=1;pointerEvents=0;collapsible=0;recursiveResize=0;" vertex="1" parent="1">
          <mxGeometry x="370" y="-400" width="460" height="360" as="geometry" />
        </mxCell>
        <mxCell id="7rjN7eUBx7o-yA5BUYcP-2" style="edgeStyle=orthogonalEdgeStyle;rounded=0;orthogonalLoop=1;jettySize=auto;html=1;labelBackgroundColor=none;" edge="1" parent="7rjN7eUBx7o-yA5BUYcP-1" source="7rjN7eUBx7o-yA5BUYcP-3" target="7rjN7eUBx7o-yA5BUYcP-7">
          <mxGeometry relative="1" as="geometry" />
        </mxCell>
        <mxCell id="7rjN7eUBx7o-yA5BUYcP-3" value="Amazon API Gateway" style="sketch=0;points=[[0,0,0],[0.25,0,0],[0.5,0,0],[0.75,0,0],[1,0,0],[0,1,0],[0.25,1,0],[0.5,1,0],[0.75,1,0],[1,1,0],[0,0.25,0],[0,0.5,0],[0,0.75,0],[1,0.25,0],[1,0.5,0],[1,0.75,0]];outlineConnect=0;fontColor=#232F3E;fillColor=#E7157B;strokeColor=#ffffff;dashed=0;verticalLabelPosition=bottom;verticalAlign=top;align=center;html=1;fontSize=12;fontStyle=0;aspect=fixed;shape=mxgraph.aws4.resourceIcon;resIcon=mxgraph.aws4.api_gateway;labelBackgroundColor=none;" vertex="1" parent="7rjN7eUBx7o-yA5BUYcP-1">
          <mxGeometry x="30" y="141" width="78" height="78" as="geometry" />
        </mxCell>
        <mxCell id="7rjN7eUBx7o-yA5BUYcP-6" value="&lt;font style=&quot;font-size: 12px;&quot;&gt;/scrapememes&lt;/font&gt;" style="edgeStyle=orthogonalEdgeStyle;rounded=0;orthogonalLoop=1;jettySize=auto;html=1;labelBackgroundColor=none;" edge="1" parent="7rjN7eUBx7o-yA5BUYcP-1" source="7rjN7eUBx7o-yA5BUYcP-7" target="7rjN7eUBx7o-yA5BUYcP-11">
          <mxGeometry x="0.505" y="9" relative="1" as="geometry">
            <Array as="points">
              <mxPoint x="260" y="170" />
              <mxPoint x="260" y="79" />
            </Array>
            <mxPoint as="offset" />
          </mxGeometry>
        </mxCell>
        <mxCell id="7rjN7eUBx7o-yA5BUYcP-7" value="gatherer-bot" style="outlineConnect=0;fontColor=#232F3E;gradientColor=#F78E04;gradientDirection=north;fillColor=#D05C17;strokeColor=#ffffff;dashed=0;verticalLabelPosition=bottom;verticalAlign=top;align=center;html=1;fontSize=12;fontStyle=0;aspect=fixed;shape=mxgraph.aws4.resourceIcon;resIcon=mxgraph.aws4.lambda;labelBackgroundColor=none;spacingTop=8;" vertex="1" parent="7rjN7eUBx7o-yA5BUYcP-1">
          <mxGeometry x="161" y="141" width="78" height="78" as="geometry" />
        </mxCell>
        <mxCell id="7rjN7eUBx7o-yA5BUYcP-8" value="get-report" style="outlineConnect=0;fontColor=#232F3E;gradientColor=#F78E04;gradientDirection=north;fillColor=#D05C17;strokeColor=#ffffff;dashed=0;verticalLabelPosition=bottom;verticalAlign=top;align=center;html=1;fontSize=12;fontStyle=0;aspect=fixed;shape=mxgraph.aws4.resourceIcon;resIcon=mxgraph.aws4.lambda;labelBackgroundColor=none;spacingTop=8;" vertex="1" parent="7rjN7eUBx7o-yA5BUYcP-1">
          <mxGeometry x="352" y="230" width="78" height="78" as="geometry" />
        </mxCell>
        <mxCell id="7rjN7eUBx7o-yA5BUYcP-9" value="&lt;font style=&quot;font-size: 12px;&quot;&gt;/getreport&lt;/font&gt;" style="edgeStyle=orthogonalEdgeStyle;rounded=0;orthogonalLoop=1;jettySize=auto;html=1;startArrow=classic;startFill=1;labelBackgroundColor=none;" edge="1" parent="7rjN7eUBx7o-yA5BUYcP-1" source="7rjN7eUBx7o-yA5BUYcP-7" target="7rjN7eUBx7o-yA5BUYcP-8">
          <mxGeometry x="0.4301" y="-10" relative="1" as="geometry">
            <mxPoint x="270" y="-70" as="targetPoint" />
            <Array as="points">
              <mxPoint x="260" y="190" />
              <mxPoint x="260" y="270" />
            </Array>
            <mxPoint as="offset" />
          </mxGeometry>
        </mxCell>
        <mxCell id="7rjN7eUBx7o-yA5BUYcP-11" value="&lt;font&gt;scrape-memes&lt;/font&gt;" style="outlineConnect=0;fontColor=#232F3E;gradientColor=#F78E04;gradientDirection=north;fillColor=#D05C17;strokeColor=#ffffff;dashed=0;verticalLabelPosition=bottom;verticalAlign=top;align=center;html=1;fontSize=12;fontStyle=0;aspect=fixed;shape=mxgraph.aws4.resourceIcon;resIcon=mxgraph.aws4.lambda;labelBackgroundColor=none;spacingTop=8;" vertex="1" parent="7rjN7eUBx7o-yA5BUYcP-1">
          <mxGeometry x="350" y="42" width="78" height="78" as="geometry" />
        </mxCell>
        <mxCell id="7rjN7eUBx7o-yA5BUYcP-12" style="edgeStyle=orthogonalEdgeStyle;rounded=0;orthogonalLoop=1;jettySize=auto;html=1;labelBackgroundColor=none;" edge="1" parent="1" source="7rjN7eUBx7o-yA5BUYcP-13" target="7rjN7eUBx7o-yA5BUYcP-3">
          <mxGeometry relative="1" as="geometry" />
        </mxCell>
        <mxCell id="7rjN7eUBx7o-yA5BUYcP-13" value="Telegram" style="shape=image;html=1;verticalAlign=top;verticalLabelPosition=bottom;labelBackgroundColor=none;imageAspect=0;aspect=fixed;image=https://cdn2.iconfinder.com/data/icons/social-media-2421/512/Telegram-128.png;fontSize=12;" vertex="1" parent="1">
          <mxGeometry x="243" y="-260" width="80" height="80" as="geometry" />
        </mxCell>
        <mxCell id="7rjN7eUBx7o-yA5BUYcP-14" style="edgeStyle=orthogonalEdgeStyle;rounded=0;orthogonalLoop=1;jettySize=auto;html=1;entryX=0.5;entryY=0;entryDx=0;entryDy=0;fontSize=22;labelBackgroundColor=none;" edge="1" parent="1" source="7rjN7eUBx7o-yA5BUYcP-7" target="7rjN7eUBx7o-yA5BUYcP-13">
          <mxGeometry relative="1" as="geometry">
            <Array as="points">
              <mxPoint x="585" y="-320" />
              <mxPoint x="283" y="-320" />
            </Array>
          </mxGeometry>
        </mxCell>
      </root>
    </mxGraphModel>
  </diagram>
  <diagram id="ew4KsWExPcSdq_5jGCNq" name="Page-3">
    <mxGraphModel dx="573" dy="1666" grid="1" gridSize="10" guides="1" tooltips="1" connect="1" arrows="1" fold="1" page="1" pageScale="1" pageWidth="850" pageHeight="1100" math="0" shadow="0">
      <root>
        <mxCell id="0" />
        <mxCell id="1" parent="0" />
        <mxCell id="ffLCp49q_DO1DI_fOOQ--1" value="AWS Cloud" style="points=[[0,0],[0.25,0],[0.5,0],[0.75,0],[1,0],[1,0.25],[1,0.5],[1,0.75],[1,1],[0.75,1],[0.5,1],[0.25,1],[0,1],[0,0.75],[0,0.5],[0,0.25]];outlineConnect=0;gradientColor=none;html=1;whiteSpace=wrap;fontSize=12;fontStyle=0;shape=mxgraph.aws4.group;grIcon=mxgraph.aws4.group_aws_cloud_alt;strokeColor=#232F3E;fillColor=none;verticalAlign=top;align=left;spacingLeft=30;fontColor=#232F3E;dashed=0;labelBackgroundColor=none;container=1;pointerEvents=0;collapsible=0;recursiveResize=0;" vertex="1" parent="1">
          <mxGeometry x="480" y="-250" width="520" height="210" as="geometry" />
        </mxCell>
        <mxCell id="ffLCp49q_DO1DI_fOOQ--5" value="Amazon DynamoDB" style="outlineConnect=0;fontColor=#232F3E;gradientColor=#4D72F3;gradientDirection=north;fillColor=#3334B9;strokeColor=#ffffff;dashed=0;verticalLabelPosition=bottom;verticalAlign=top;align=center;html=1;fontSize=12;fontStyle=0;aspect=fixed;shape=mxgraph.aws4.resourceIcon;resIcon=mxgraph.aws4.dynamodb;labelBackgroundColor=none;" vertex="1" parent="ffLCp49q_DO1DI_fOOQ--1">
          <mxGeometry x="395.5" y="70" width="78" height="78" as="geometry" />
        </mxCell>
        <mxCell id="ffLCp49q_DO1DI_fOOQ--6" value="&lt;font style=&quot;font-size: 12px;&quot;&gt;/scrapememes&lt;/font&gt;" style="edgeStyle=orthogonalEdgeStyle;rounded=0;orthogonalLoop=1;jettySize=auto;html=1;labelBackgroundColor=none;" edge="1" parent="ffLCp49q_DO1DI_fOOQ--1" source="ffLCp49q_DO1DI_fOOQ--7" target="ffLCp49q_DO1DI_fOOQ--11">
          <mxGeometry x="-0.125" y="9" relative="1" as="geometry">
            <Array as="points">
              <mxPoint x="180" y="109" />
              <mxPoint x="180" y="109" />
            </Array>
            <mxPoint as="offset" />
          </mxGeometry>
        </mxCell>
        <mxCell id="ffLCp49q_DO1DI_fOOQ--7" value="gatherer-bot" style="outlineConnect=0;fontColor=#232F3E;gradientColor=#F78E04;gradientDirection=north;fillColor=#D05C17;strokeColor=#ffffff;dashed=0;verticalLabelPosition=bottom;verticalAlign=top;align=center;html=1;fontSize=12;fontStyle=0;aspect=fixed;shape=mxgraph.aws4.resourceIcon;resIcon=mxgraph.aws4.lambda;labelBackgroundColor=none;spacingTop=8;" vertex="1" parent="ffLCp49q_DO1DI_fOOQ--1">
          <mxGeometry x="40" y="66" width="78" height="78" as="geometry" />
        </mxCell>
        <mxCell id="ffLCp49q_DO1DI_fOOQ--15" style="edgeStyle=orthogonalEdgeStyle;rounded=0;orthogonalLoop=1;jettySize=auto;html=1;" edge="1" parent="ffLCp49q_DO1DI_fOOQ--1" source="ffLCp49q_DO1DI_fOOQ--11" target="ffLCp49q_DO1DI_fOOQ--5">
          <mxGeometry relative="1" as="geometry" />
        </mxCell>
        <mxCell id="ffLCp49q_DO1DI_fOOQ--11" value="&lt;font&gt;scrape-memes&lt;/font&gt;" style="outlineConnect=0;fontColor=#232F3E;gradientColor=#F78E04;gradientDirection=north;fillColor=#D05C17;strokeColor=#ffffff;dashed=0;verticalLabelPosition=bottom;verticalAlign=top;align=center;html=1;fontSize=12;fontStyle=0;aspect=fixed;shape=mxgraph.aws4.resourceIcon;resIcon=mxgraph.aws4.lambda;labelBackgroundColor=none;spacingTop=8;" vertex="1" parent="ffLCp49q_DO1DI_fOOQ--1">
          <mxGeometry x="228.5" y="70" width="78" height="78" as="geometry" />
        </mxCell>
        <mxCell id="ffLCp49q_DO1DI_fOOQ--16" value="Reddit" style="dashed=0;outlineConnect=0;html=1;align=center;labelPosition=center;verticalLabelPosition=bottom;verticalAlign=top;shape=mxgraph.webicons.reddit;fillColor=#F3F8FC;gradientColor=#B4D2F0" vertex="1" parent="1">
          <mxGeometry x="860" y="-380" width="102.4" height="102.4" as="geometry" />
        </mxCell>
        <mxCell id="ffLCp49q_DO1DI_fOOQ--17" style="edgeStyle=orthogonalEdgeStyle;rounded=0;orthogonalLoop=1;jettySize=auto;html=1;startArrow=classic;startFill=1;" edge="1" parent="1" source="ffLCp49q_DO1DI_fOOQ--11" target="ffLCp49q_DO1DI_fOOQ--16">
          <mxGeometry relative="1" as="geometry">
            <Array as="points">
              <mxPoint x="747" y="-329" />
            </Array>
          </mxGeometry>
        </mxCell>
        <mxCell id="ffLCp49q_DO1DI_fOOQ--18" value="&lt;span&gt;GET daily top 20&lt;/span&gt;&lt;div&gt;&lt;span&gt;&amp;nbsp;from r/memes&lt;/span&gt;&lt;/div&gt;" style="edgeLabel;html=1;align=center;verticalAlign=middle;resizable=0;points=[];labelBackgroundColor=none;" vertex="1" connectable="0" parent="ffLCp49q_DO1DI_fOOQ--17">
          <mxGeometry x="0.3713" y="3" relative="1" as="geometry">
            <mxPoint x="22" y="22" as="offset" />
          </mxGeometry>
        </mxCell>
      </root>
    </mxGraphModel>
  </diagram>
  <diagram id="74p70gTrOnEkC-nSztrp" name="Page-4">
    <mxGraphModel dx="1247" dy="1889" grid="1" gridSize="10" guides="1" tooltips="1" connect="1" arrows="1" fold="1" page="1" pageScale="1" pageWidth="850" pageHeight="1100" math="0" shadow="0">
      <root>
        <mxCell id="0" />
        <mxCell id="1" parent="0" />
        <mxCell id="DYQL2BTnEQj1HHA-2h4E-1" value="AWS Cloud" style="points=[[0,0],[0.25,0],[0.5,0],[0.75,0],[1,0],[1,0.25],[1,0.5],[1,0.75],[1,1],[0.75,1],[0.5,1],[0.25,1],[0,1],[0,0.75],[0,0.5],[0,0.25]];outlineConnect=0;gradientColor=none;html=1;whiteSpace=wrap;fontSize=12;fontStyle=0;shape=mxgraph.aws4.group;grIcon=mxgraph.aws4.group_aws_cloud_alt;strokeColor=#232F3E;fillColor=none;verticalAlign=top;align=left;spacingLeft=30;fontColor=#232F3E;dashed=0;labelBackgroundColor=none;container=1;pointerEvents=0;collapsible=0;recursiveResize=0;" vertex="1" parent="1">
          <mxGeometry x="307" y="-330" width="520" height="220" as="geometry" />
        </mxCell>
        <mxCell id="DYQL2BTnEQj1HHA-2h4E-20" style="edgeStyle=orthogonalEdgeStyle;rounded=0;orthogonalLoop=1;jettySize=auto;html=1;" edge="1" parent="DYQL2BTnEQj1HHA-2h4E-1" source="DYQL2BTnEQj1HHA-2h4E-5" target="DYQL2BTnEQj1HHA-2h4E-8">
          <mxGeometry relative="1" as="geometry" />
        </mxCell>
        <mxCell id="DYQL2BTnEQj1HHA-2h4E-5" value="Amazon DynamoDB" style="outlineConnect=0;fontColor=#232F3E;gradientColor=#4D72F3;gradientDirection=north;fillColor=#3334B9;strokeColor=#ffffff;dashed=0;verticalLabelPosition=bottom;verticalAlign=top;align=center;html=1;fontSize=12;fontStyle=0;aspect=fixed;shape=mxgraph.aws4.resourceIcon;resIcon=mxgraph.aws4.dynamodb;labelBackgroundColor=none;" vertex="1" parent="DYQL2BTnEQj1HHA-2h4E-1">
          <mxGeometry x="395.5" y="60" width="78" height="78" as="geometry" />
        </mxCell>
        <mxCell id="DYQL2BTnEQj1HHA-2h4E-7" value="gatherer-bot" style="outlineConnect=0;fontColor=#232F3E;gradientColor=#F78E04;gradientDirection=north;fillColor=#D05C17;strokeColor=#ffffff;dashed=0;verticalLabelPosition=bottom;verticalAlign=top;align=center;html=1;fontSize=12;fontStyle=0;aspect=fixed;shape=mxgraph.aws4.resourceIcon;resIcon=mxgraph.aws4.lambda;labelBackgroundColor=none;spacingTop=8;" vertex="1" parent="DYQL2BTnEQj1HHA-2h4E-1">
          <mxGeometry x="46.5" y="60" width="78" height="78" as="geometry" />
        </mxCell>
        <mxCell id="DYQL2BTnEQj1HHA-2h4E-16" style="edgeStyle=orthogonalEdgeStyle;rounded=0;orthogonalLoop=1;jettySize=auto;html=1;" edge="1" parent="DYQL2BTnEQj1HHA-2h4E-1" source="DYQL2BTnEQj1HHA-2h4E-8" target="DYQL2BTnEQj1HHA-2h4E-7">
          <mxGeometry relative="1" as="geometry">
            <Array as="points">
              <mxPoint x="180" y="110" />
              <mxPoint x="180" y="110" />
            </Array>
          </mxGeometry>
        </mxCell>
        <mxCell id="DYQL2BTnEQj1HHA-2h4E-8" value="get-report" style="outlineConnect=0;fontColor=#232F3E;gradientColor=#F78E04;gradientDirection=north;fillColor=#D05C17;strokeColor=#ffffff;dashed=0;verticalLabelPosition=bottom;verticalAlign=top;align=center;html=1;fontSize=12;fontStyle=0;aspect=fixed;shape=mxgraph.aws4.resourceIcon;resIcon=mxgraph.aws4.lambda;labelBackgroundColor=none;spacingTop=8;" vertex="1" parent="DYQL2BTnEQj1HHA-2h4E-1">
          <mxGeometry x="237.5" y="60" width="78" height="78" as="geometry" />
        </mxCell>
        <mxCell id="DYQL2BTnEQj1HHA-2h4E-9" value="&lt;font style=&quot;font-size: 12px;&quot;&gt;/getreport&lt;/font&gt;" style="edgeStyle=orthogonalEdgeStyle;rounded=0;orthogonalLoop=1;jettySize=auto;html=1;startArrow=none;startFill=0;labelBackgroundColor=none;" edge="1" parent="DYQL2BTnEQj1HHA-2h4E-1" source="DYQL2BTnEQj1HHA-2h4E-7" target="DYQL2BTnEQj1HHA-2h4E-8">
          <mxGeometry x="-0.0973" y="10" relative="1" as="geometry">
            <mxPoint x="270" y="-70" as="targetPoint" />
            <Array as="points">
              <mxPoint x="180" y="90" />
              <mxPoint x="180" y="90" />
            </Array>
            <mxPoint as="offset" />
          </mxGeometry>
        </mxCell>
        <mxCell id="DYQL2BTnEQj1HHA-2h4E-15" value="" style="shape=image;html=1;verticalAlign=top;verticalLabelPosition=bottom;labelBackgroundColor=#ffffff;imageAspect=0;aspect=fixed;image=https://cdn4.iconfinder.com/data/icons/file-extension-names-vol-8/512/24-128.png" vertex="1" parent="DYQL2BTnEQj1HHA-2h4E-1">
          <mxGeometry x="156" y="120" width="50" height="50" as="geometry" />
        </mxCell>
        <mxCell id="DYQL2BTnEQj1HHA-2h4E-13" value="Telegram" style="shape=image;html=1;verticalAlign=top;verticalLabelPosition=bottom;labelBackgroundColor=none;imageAspect=0;aspect=fixed;image=https://cdn2.iconfinder.com/data/icons/social-media-2421/512/Telegram-128.png;fontSize=12;" vertex="1" parent="1">
          <mxGeometry x="160" y="-271" width="80" height="80" as="geometry" />
        </mxCell>
        <mxCell id="DYQL2BTnEQj1HHA-2h4E-18" style="edgeStyle=orthogonalEdgeStyle;rounded=0;orthogonalLoop=1;jettySize=auto;html=1;entryX=1;entryY=0.5;entryDx=0;entryDy=0;" edge="1" parent="1" source="DYQL2BTnEQj1HHA-2h4E-7" target="DYQL2BTnEQj1HHA-2h4E-13">
          <mxGeometry relative="1" as="geometry" />
        </mxCell>
        <mxCell id="DYQL2BTnEQj1HHA-2h4E-19" value="" style="shape=image;html=1;verticalAlign=top;verticalLabelPosition=bottom;labelBackgroundColor=#ffffff;imageAspect=0;aspect=fixed;image=https://cdn4.iconfinder.com/data/icons/file-extension-names-vol-8/512/24-128.png" vertex="1" parent="1">
          <mxGeometry x="250" y="-220" width="50" height="50" as="geometry" />
        </mxCell>
      </root>
    </mxGraphModel>
  </diagram>
</mxfile>
